<?xml version="1.0" ?><!-- Created with Inkscape (http://www.inkscape.org/) --><svg height="24" id="svg3200" inkscape:version="0.48.0 r9654" sodipodi:docname="network-transmit-receive.svg" version="1.0" width="24" xmlns="http://www.w3.org/2000/svg" xmlns:cc="http://creativecommons.org/ns#" xmlns:dc="http://purl.org/dc/elements/1.1/" xmlns:inkscape="http://www.inkscape.org/namespaces/inkscape" xmlns:rdf="http://www.w3.org/1999/02/22-rdf-syntax-ns#" xmlns:sodipodi="http://sodipodi.sourceforge.net/DTD/sodipodi-0.dtd" xmlns:svg="http://www.w3.org/2000/svg">
  <sodipodi:namedview bordercolor="#666666" borderopacity="1" gridtolerance="10" guidetolerance="10" id="namedview7" inkscape:current-layer="svg3200" inkscape:cx="11" inkscape:cy="11.793814" inkscape:pageopacity="0" inkscape:pageshadow="2" inkscape:window-height="753" inkscape:window-maximized="1" inkscape:window-width="1280" inkscape:window-x="0" inkscape:window-y="24" inkscape:zoom="13.227273" objecttolerance="10" pagecolor="#ffffff" showgrid="false"/>
  <metadata id="metadata8">
    <rdf:RDF>
      <cc:Work rdf:about="">
        <dc:format>image/svg+xml</dc:format>
        <dc:type rdf:resource="http://purl.org/dc/dcmitype/StillImage"/>
        <dc:title/>
      </cc:Work>
    </rdf:RDF>
  </metadata>
  <defs id="defs3202"/>
  <path d="m 21,17 -5,5 -5,-5 3,0 0,-7 4,0 0,7 3,0 z m -8,-7 -5,-5 -5,5 3,0 0,7 4,0 0,-7 3,0 z" id="path4348-1-9" inkscape:connector-curvature="0" style="opacity:0.3;fill:#000000;fill-opacity:1;fill-rule:evenodd;stroke:none;stroke-width:1.69999993;marker:none;visibility:visible;display:inline;overflow:visible;enable-background:accumulate"/>
  <path d="m 21,16 -5,5 -5,-5 3,0 0,-7 4,0 0,7 3,0 z M 13,9 8,4 3,9 l 3,0 0,7 4,0 0,-7 3,0 z" id="path4348-1" inkscape:connector-curvature="0" style="fill:#dfdbd2;fill-opacity:1;fill-rule:evenodd;stroke:none;stroke-width:1.69999993;marker:none;visibility:visible;display:inline;overflow:visible;enable-background:accumulate"/>

<!-- imported from 'ubuntu-mono-dark/status/24/nm-vpn-lock.svg' -->
<g id="svg3215">
  <metadata id="metadata12">
    <rdf:RDF>
      <cc:Work rdf:about="">
        <dc:format>image/svg+xml</dc:format>
        <dc:type rdf:resource="http://purl.org/dc/dcmitype/StillImage"/>
        <dc:title/>
      </cc:Work>
    </rdf:RDF>
  </metadata>
  <sodipodi:namedview bordercolor="#666666" borderopacity="1.0" gridtolerance="10.0" guidetolerance="10.0" id="base" inkscape:current-layer="svg3215" inkscape:cx="-2.6506024" inkscape:cy="13.012048" inkscape:pageopacity="0.0" inkscape:pageshadow="2" inkscape:window-height="753" inkscape:window-maximized="1" inkscape:window-width="1280" inkscape:window-x="0" inkscape:window-y="24" inkscape:zoom="10.375" objecttolerance="10.0" pagecolor="#ffffff" showgrid="false"/>
  <defs id="defs3217"/>
  <path d="m 21,16 c -1.108,0 -2,0.910763 -2,2.03125 L 19,19 c -0.554,0 -1,0.446 -1,1 l 0,3 c 0,0.554 0.446,1 1,1 l 4,0 c 0.554,0 1,-0.446 1,-1 l 0,-3 c 0,-0.554 -0.446,-1 -1,-1 l 0,-0.96875 C 23,16.910764 22.108,16 21,16 z m 0,1 c 0.554,0 1,0.442363 1,1 l 0,1 -2,0 0,-1 c 0,-0.557637 0.446,-1 1,-1 z" id="path2441" inkscape:connector-curvature="0" style="opacity:0.3;fill:#000000;fill-opacity:1;fill-rule:nonzero;stroke:none;stroke-width:1;marker:none;visibility:visible;display:inline;overflow:visible;enable-background:accumulate"/>
  <path d="m 21,15 c -1.108,0 -2,0.910763 -2,2.03125 L 19,18 c -0.554,0 -1,0.446 -1,1 l 0,3 c 0,0.554 0.446,1 1,1 l 4,0 c 0.554,0 1,-0.446 1,-1 l 0,-3 c 0,-0.554 -0.446,-1 -1,-1 l 0,-0.96875 C 23,15.910764 22.108,15 21,15 z m 0,1 c 0.554,0 1,0.442363 1,1 l 0,1 -2,0 0,-1 c 0,-0.557637 0.446,-1 1,-1 z" id="rect2822" inkscape:connector-curvature="0" style="fill:#dfdbd2;fill-opacity:1;fill-rule:nonzero;stroke:none;stroke-width:1;marker:none;visibility:visible;display:inline;overflow:visible;enable-background:accumulate"/>
</g>
</svg>