<?xml version="1.0" encoding="UTF-8" standalone="no"?>
<!-- Created with Inkscape (http://www.inkscape.org/) -->

<svg
   xmlns:dc="http://purl.org/dc/elements/1.1/"
   xmlns:cc="http://creativecommons.org/ns#"
   xmlns:rdf="http://www.w3.org/1999/02/22-rdf-syntax-ns#"
   xmlns:svg="http://www.w3.org/2000/svg"
   xmlns="http://www.w3.org/2000/svg"
   xmlns:xlink="http://www.w3.org/1999/xlink"
   xmlns:sodipodi="http://sodipodi.sourceforge.net/DTD/sodipodi-0.dtd"
   xmlns:inkscape="http://www.inkscape.org/namespaces/inkscape"
   version="1.0"
   width="64"
   height="64"
   id="svg2906"
   inkscape:version="0.91 r13725"
   sodipodi:docname="folder-arch-dark.svg">
  <metadata
     id="metadata59">
    <rdf:RDF>
      <cc:Work
         rdf:about="">
        <dc:format>image/svg+xml</dc:format>
        <dc:type
           rdf:resource="http://purl.org/dc/dcmitype/StillImage" />
        <dc:title></dc:title>
      </cc:Work>
    </rdf:RDF>
  </metadata>
  <sodipodi:namedview
     pagecolor="#ffffff"
     bordercolor="#666666"
     borderopacity="1"
     objecttolerance="10"
     gridtolerance="10"
     guidetolerance="10"
     inkscape:pageopacity="0"
     inkscape:pageshadow="2"
     inkscape:window-width="687"
     inkscape:window-height="480"
     id="namedview57"
     showgrid="false"
     inkscape:snap-bbox="true"
     inkscape:bbox-paths="true"
     inkscape:bbox-nodes="true"
     inkscape:zoom="3.6875"
     inkscape:cx="32"
     inkscape:cy="32"
     inkscape:window-x="0"
     inkscape:window-y="30"
     inkscape:window-maximized="0"
     inkscape:current-layer="svg2906" />
  <defs
     id="defs2908">
    <linearGradient
       id="linearGradient3484">
      <stop
         id="stop3486"
         style="stop-color:#bdbdbd;stop-opacity:1"
         offset="0" />
      <stop
         id="stop3488"
         style="stop-color:#d0d0d0;stop-opacity:1"
         offset="1" />
    </linearGradient>
    <radialGradient
       cx="3"
       cy="5.01718"
       r="21"
       fx="3"
       fy="5.01718"
       id="radialGradient2904"
       xlink:href="#linearGradient3484"
       gradientUnits="userSpaceOnUse"
       gradientTransform="matrix(-1.7093459e-8,2.2800078,-2.8951677,-1.9417461e-8,16.801102,2.2898094)" />
    <linearGradient
       id="linearGradient6404">
      <stop
         id="stop6406"
         style="stop-color:#f9f9f9;stop-opacity:1"
         offset="0" />
      <stop
         id="stop6408"
         style="stop-color:#c9c9c9;stop-opacity:1"
         offset="1" />
    </linearGradient>
    <linearGradient
       x1="62.988873"
       y1="13.182598"
       x2="62.988873"
       y2="16.19013"
       id="linearGradient2902"
       xlink:href="#linearGradient6404"
       gradientUnits="userSpaceOnUse"
       gradientTransform="matrix(1.3407707,0,0,1.33,-68.673377,-1.5100021)" />
    <linearGradient
       id="linearGradient5060-820">
      <stop
         id="stop2681"
         style="stop-color:#000000;stop-opacity:1"
         offset="0" />
      <stop
         id="stop2683"
         style="stop-color:#000000;stop-opacity:0"
         offset="1" />
    </linearGradient>
    <radialGradient
       cx="605.71429"
       cy="486.64789"
       r="117.14286"
       fx="605.71429"
       fy="486.64789"
       id="radialGradient2880"
       xlink:href="#linearGradient5060-820"
       gradientUnits="userSpaceOnUse"
       gradientTransform="matrix(-3.212956e-2,0,0,3.705882e-2,23.363215,25.412461)" />
    <linearGradient
       id="linearGradient5060-179">
      <stop
         id="stop2675"
         style="stop-color:#000000;stop-opacity:1"
         offset="0" />
      <stop
         id="stop2677"
         style="stop-color:#000000;stop-opacity:0"
         offset="1" />
    </linearGradient>
    <radialGradient
       cx="605.71429"
       cy="486.64789"
       r="117.14286"
       fx="605.71429"
       fy="486.64789"
       id="radialGradient2878"
       xlink:href="#linearGradient5060-179"
       gradientUnits="userSpaceOnUse"
       gradientTransform="matrix(3.212956e-2,0,0,3.705882e-2,24.636785,25.412461)" />
    <linearGradient
       id="linearGradient5048-585">
      <stop
         id="stop2667"
         style="stop-color:#000000;stop-opacity:0"
         offset="0" />
      <stop
         id="stop2669"
         style="stop-color:#000000;stop-opacity:1"
         offset="0.5" />
      <stop
         id="stop2671"
         style="stop-color:#000000;stop-opacity:0"
         offset="1" />
    </linearGradient>
    <linearGradient
       x1="302.85715"
       y1="366.64789"
       x2="302.85715"
       y2="609.50507"
       id="linearGradient2876"
       xlink:href="#linearGradient5048-585"
       gradientUnits="userSpaceOnUse"
       gradientTransform="matrix(8.284024e-2,0,0,3.705882e-2,-5.9408285,25.412461)" />
    <linearGradient
       id="linearGradient3390-178-986-453-8">
      <stop
         id="stop3624-5"
         style="stop-color:#bb2b12;stop-opacity:1"
         offset="0" />
      <stop
         id="stop3626-7"
         style="stop-color:#cd7233;stop-opacity:1"
         offset="1" />
    </linearGradient>
    <linearGradient
       x1="82.453476"
       y1="45.114193"
       x2="65.340263"
       y2="15.943953"
       id="linearGradient2895"
       xlink:href="#linearGradient3390-178-986-453-8"
       gradientUnits="userSpaceOnUse"
       gradientTransform="matrix(1.3407998,0,0,1.3264587,-72.462643,-1.6032277)" />
    <linearGradient
       id="linearGradient7012-661-145-733-759-865-745-661-970-94-6">
      <stop
         id="stop3618-2"
         style="stop-color:#edb763;stop-opacity:1"
         offset="0" />
      <stop
         id="stop2559"
         style="stop-color:#de7f32;stop-opacity:1"
         offset="0.5" />
      <stop
         id="stop3620-1"
         style="stop-color:#d24413;stop-opacity:1"
         offset="1" />
    </linearGradient>
    <radialGradient
       cx="63.969177"
       cy="14.113381"
       r="23.097054"
       fx="63.969177"
       fy="14.113381"
       id="radialGradient2893"
       xlink:href="#linearGradient7012-661-145-733-759-865-745-661-970-94-6"
       gradientUnits="userSpaceOnUse"
       gradientTransform="matrix(2.0979394,-1.2620327e-7,8.2824269e-8,1.3475335,-115.96782,9.3537334)" />
    <linearGradient
       id="linearGradient6129-963-697-142-998-580-273">
      <stop
         id="stop2661"
         style="stop-color:#0a0a0a;stop-opacity:0.498"
         offset="0" />
      <stop
         id="stop2663"
         style="stop-color:#0a0a0a;stop-opacity:0"
         offset="1" />
    </linearGradient>
    <linearGradient
       x1="22.934725"
       y1="49.629246"
       x2="22.809399"
       y2="36.657963"
       id="linearGradient2890"
       xlink:href="#linearGradient6129-963-697-142-998-580-273"
       gradientUnits="userSpaceOnUse"
       gradientTransform="matrix(1.5347702,0,0,1.3270123,-5.0206145,-4.8541574e-2)" />
    <linearGradient
       id="linearGradient6087-437-184-795-110-662-495">
      <stop
         id="stop2693"
         style="stop-color:#ffffff;stop-opacity:0.40000001"
         offset="0" />
      <stop
         id="stop2695"
         style="stop-color:#ffffff;stop-opacity:0"
         offset="1" />
    </linearGradient>
    <radialGradient
       cx="7.2646537"
       cy="8.3021259"
       r="20.979567"
       fx="7.2646537"
       fy="8.3021259"
       id="radialGradient2887"
       xlink:href="#linearGradient6087-437-184-795-110-662-495"
       gradientUnits="userSpaceOnUse"
       gradientTransform="matrix(0,1.606606,-2.1816541,0,34.685541,9.28484)" />
    <linearGradient
       id="linearGradient8265-821-176-38-919-66-249">
      <stop
         id="stop2687"
         style="stop-color:#ffffff;stop-opacity:0.27450982"
         offset="0" />
      <stop
         id="stop2689"
         style="stop-color:#ffffff;stop-opacity:0.07843138"
         offset="1" />
    </linearGradient>
    <linearGradient
       x1="11.566265"
       y1="22.292103"
       x2="15.214532"
       y2="33.95525"
       id="linearGradient2884"
       xlink:href="#linearGradient8265-821-176-38-919-66-249"
       gradientUnits="userSpaceOnUse"
       gradientTransform="matrix(1.3407707,0,0,1.33,-0.3733138,-1.3099814)" />
    <linearGradient
       gradientTransform="translate(287,-83)"
       x1="112.49854"
       y1="6.1372099"
       x2="112.49853"
       y2="129.3468"
       id="path1082_2_"
       gradientUnits="userSpaceOnUse">
      <stop
         style="stop-color:#ffffff;stop-opacity:0"
         offset="0"
         id="stop193" />
      <stop
         style="stop-color:#ffffff;stop-opacity:0.27450982;"
         offset="1"
         id="stop195" />
      <midPointStop
         offset="0"
         style="stop-color:#FFFFFF"
         id="midPointStop197" />
      <midPointStop
         offset="0.5"
         style="stop-color:#FFFFFF"
         id="midPointStop199" />
      <midPointStop
         offset="1"
         style="stop-color:#000000"
         id="midPointStop201" />
    </linearGradient>
    <linearGradient
       id="linearGradient4346"
       inkscape:collect="always">
      <stop
         id="stop4348"
         offset="0"
         style="stop-color:#00bdec;stop-opacity:1" />
      <stop
         id="stop4350"
         offset="1"
         style="stop-color:#40bfde;stop-opacity:1" />
    </linearGradient>
    <linearGradient
       gradientUnits="userSpaceOnUse"
       y2="666.97791"
       x2="616.48553"
       y1="634.15063"
       x1="400.6142"
       id="linearGradient4352"
       xlink:href="#linearGradient4346"
       inkscape:collect="always" />
    <linearGradient
       id="linearGradient5323"
       inkscape:collect="always">
      <stop
         id="stop5325"
         offset="0"
         style="stop-color:#6e6e6e;stop-opacity:1" />
      <stop
         id="stop5327"
         offset="1"
         style="stop-color:#4d4d4d;stop-opacity:1" />
    </linearGradient>
    <linearGradient
       gradientUnits="userSpaceOnUse"
       y2="348.96875"
       x2="650.81366"
       y1="238.08237"
       x1="291.83591"
       id="linearGradient5329"
       xlink:href="#linearGradient5323"
       inkscape:collect="always" />
    <linearGradient
       y2="303.14029"
       x2="606.91248"
       y1="104.50665"
       x1="541.33502"
       gradientTransform="matrix(-0.3937741,0,0,0.393752,978.3497,416.9815)"
       gradientUnits="userSpaceOnUse"
       id="linearGradient2216"
       xlink:href="#path1082_2_"
       inkscape:collect="always" />
  </defs>
  <g
     id="layer1">
    <path
       d="M 5.2811241,9.6095059 C 4.355629,9.619707 3.6363637,10.264557 3.6363637,11.139503 C 3.6363637,18.473728 3.6793863,24.093141 3.6363637,30.757577 C 5.5610006,30.757577 60.532,25.822427 60.532,23.704359 L 60.532,15.123839 C 60.532,14.248894 59.888687,13.583799 58.963187,13.594001 L 31.80518,13.594001 C 29.059975,13.594001 27.11397,9.5949999 25.101327,9.5949999 L 5.2811241,9.6095059 z"
       id="path2856"
       style="fill:url(#linearGradient2902);fill-opacity:1;stroke:url(#radialGradient2904);stroke-width:1;stroke-linecap:round;stroke-linejoin:round;stroke-miterlimit:4;stroke-dasharray:none;stroke-opacity:1;display:inline" />
    <g
       transform="matrix(1.2849052,0,0,0.8866667,0.967458,18.439998)"
       id="g2858"
       style="opacity:0.4">
      <rect
         width="40.700279"
         height="9"
         x="4"
         y="39"
         id="rect2860"
         style="fill:url(#linearGradient2876);fill-opacity:1;fill-rule:nonzero;stroke:none;stroke-width:1;marker:none;visibility:visible;display:inline;overflow:visible" />
      <path
         d="M 44.700217,39.00031 C 44.700217,39.00031 44.700217,47.999814 44.700217,47.999814 C 46.35481,48.016754 48.700218,45.983481 48.700217,43.499483 C 48.700217,41.015484 46.853815,39.00031 44.700217,39.00031 z"
         id="path2862"
         style="fill:url(#radialGradient2878);fill-opacity:1;fill-rule:nonzero;stroke:none;stroke-width:1;marker:none;visibility:visible;display:inline;overflow:visible" />
      <path
         d="M 4,39.00031 C 4,39.00031 4,47.999814 4,47.999814 C 2.3454068,48.016755 0,45.983481 0,43.499483 C 0,41.015484 1.8464008,39.00031 4,39.00031 z"
         id="path2864"
         style="fill:url(#radialGradient2880);fill-opacity:1;fill-rule:nonzero;stroke:none;stroke-width:1;marker:none;visibility:visible;display:inline;overflow:visible" />
    </g>
    <path
       d="M 2.5259407,20.468232 C 1.0876554,20.632306 1.6560144,22.328083 1.5413397,23.281666 C 2.0676467,34.516892 2.7989745,45.525657 3.3220406,56.760958 C 3.7803743,58.041911 5.4598586,57.385933 6.5240274,57.548543 C 24.213928,57.548543 41.903832,57.548543 59.593735,57.548543 C 61.054375,57.407075 60.447101,55.681312 60.652564,54.693657 C 61.178881,43.458431 61.9106,32.449666 62.43366,21.214365 C 62.096891,19.94854 60.196076,20.651928 59.199039,20.468232 C 40.30801,20.468232 21.416976,20.468232 2.5259407,20.468232 L 2.5259407,20.468232 z"
       id="path2866"
       style="fill:url(#radialGradient2893);fill-opacity:1;stroke:url(#linearGradient2895);stroke-width:0.99867868;stroke-linecap:round;stroke-linejoin:round;stroke-miterlimit:4;stroke-dasharray:none;stroke-dashoffset:0;stroke-opacity:1" />
    <path
       d="M 2.3863178,19.856642 L 61.241426,19.857178 C 62.091689,19.857178 62.642739,20.448511 62.642739,21.183677 L 60.974504,57.012987 C 60.974504,57.748151 60.289997,58.339998 59.439737,58.339998 L 4.1880045,58.339998 C 3.3377415,58.339998 2.653234,57.748151 2.653234,57.012987 L 0.98500571,21.183655 C 0.98500571,20.448488 1.5360548,19.856642 2.3863178,19.856642 z"
       id="path2868"
       style="opacity:0.4;fill:url(#linearGradient2890);fill-opacity:1;stroke:none" />
    <path
       d="M 61.672911,21.565438 C 43.530608,21.565438 20.821304,21.565438 2.679,21.565438 C 3,32 3.7125107,43.316481 4.2292662,54.192001"
       id="path2870"
       style="fill:none;stroke:url(#radialGradient2887);stroke-width:1;stroke-linecap:round;stroke-linejoin:round;stroke-miterlimit:4;stroke-dasharray:none;stroke-opacity:1" />
    <path
       d="M 60.966946,19.970018 C 41.459282,20.067574 21.944372,19.941889 2.4339249,19.970018 C 0.011473769,20.516804 1.3151768,23.25061 1.130124,24.986147 C 1.4278147,30.523398 1.5632824,36.084915 1.9620206,41.607 C 22.074269,38.464478 42.086655,35.479352 61.846826,32.230956 C 62.893956,28.790807 62.90252,24.689066 62.728192,21.020088 C 62.420973,20.34902 61.672994,19.954965 60.966946,19.970018 z"
       id="path2872"
       style="fill:url(#linearGradient2884);fill-opacity:1;stroke:none" />
    <rect
       width="19.000004"
       height="2.1212108"
       rx="1.3407707"
       ry="0.99632323"
       x="6"
       y="12"
       id="rect2874"
       style="fill:#eda374;fill-opacity:1;fill-rule:nonzero;stroke:none;stroke-width:1;marker:none;visibility:visible;display:block;overflow:visible;enable-background:accumulate" />
  </g>
  <g
     transform="matrix(0.125,0,0,0.125,-17.446918,14.299845)"
     id="layer1-8"
     inkscape:label="Layer 1">
    <g
       transform="matrix(1.3473684,0,0,1.3473684,-632.88236,-513.34366)"
       id="g2424">
      <g
         id="g2210">
        <path
           transform="matrix(0.7421875,0,0,0.7421875,669.75015,435.62318)"
           id="path2518"
           d="M 128,0 C 116.60518,27.937051 109.68663,46.237163 97,73.34375 104.7785,81.588957 114.33826,91.155503 129.84375,102 113.17383,95.140423 101.81018,88.271496 93.3125,81.125 77.076039,115.00489 51.621645,163.24639 0,256 c 40.562707,-23.41756 72.007597,-37.86167 101.3125,-43.375 -1.25376,-5.40435 -1.923505,-11.27752 -1.875,-17.375 l 0.03125,-1.28125 c 0.64379,-25.99398 14.16934,-45.98224 30.1875,-44.625 16.01815,1.35723 28.48754,23.53727 27.84375,49.53125 -0.12127,4.89622 -0.6905,9.60082 -1.65625,13.96875 C 184.83328,218.51691 215.98162,232.89667 256,256 c -7.89193,-14.52962 -14.96051,-27.61983 -21.6875,-40.09375 -10.59609,-8.21269 -21.64301,-18.89743 -44.1875,-30.46875 15.4958,4.02645 26.60184,8.6825 35.25,13.875 C 156.97985,71.972668 151.45422,55.040376 128,0 Z"
           style="fill:#000000;fill-opacity:1;fill-rule:evenodd;stroke:none;stroke-width:1;stroke-linecap:round;stroke-linejoin:round;stroke-miterlimit:10;stroke-dasharray:none;stroke-opacity:1"
           inkscape:connector-curvature="0" />
        <path
           sodipodi:nodetypes="ccc"
           id="path2522"
           d="M 818.22607,548.55277 C 777.04464,492.65769 767.49922,447.60796 765.0814,436.85262 c 21.96737,50.6686 21.81733,51.28995 53.14467,111.70015 z"
           style="fill:#000000;fill-opacity:1;fill-rule:evenodd;stroke:none;stroke-width:36.09999847;stroke-linecap:butt;stroke-linejoin:round;stroke-miterlimit:10;stroke-opacity:1"
           inkscape:connector-curvature="0" />
        <path
           id="path2520"
           d="m 765.09805,436.43495 c -1.05641,2.59705 -2.08559,5.1172 -3.06152,7.51465 -1.08115,2.65585 -2.10928,5.19128 -3.13111,7.677 -1.02174,2.48575 -2.03439,4.91156 -3.03833,7.30591 -1.00398,2.39446 -2.01068,4.76169 -3.03833,7.14355 -1.02758,2.38177 -2.06156,4.78845 -3.15429,7.23633 -1.09273,2.44796 -2.23335,4.94504 -3.43262,7.53784 -1.19937,2.59282 -2.45641,5.27815 -3.80371,8.09448 -0.18662,0.39008 -0.41312,0.83402 -0.60303,1.22925 5.75521,6.09563 12.84133,13.14976 24.28345,21.15234 -12.34021,-5.07792 -20.76511,-10.15751 -27.06665,-15.44677 -0.32717,0.66791 -0.61387,1.26431 -0.95093,1.94824 -0.44365,0.90024 -0.97632,1.92315 -1.43799,2.85278 -0.80967,1.66032 -1.65574,3.36576 -2.52807,5.12574 -0.33524,0.66652 -0.62948,1.24283 -0.97413,1.92504 -5.50733,11.05265 -12.33962,24.28304 -21.12915,40.72754 24.09557,-13.57581 50.08533,-33.16242 97.29615,-16.30493 -2.36708,-4.48319 -4.54319,-8.68756 -6.58692,-12.64038 -2.0437,-3.95294 -3.94246,-7.6555 -5.70556,-11.15601 -1.76297,-3.50043 -3.39212,-6.80069 -4.917,-9.92675 -1.52486,-3.12599 -2.93832,-6.0765 -4.26757,-8.90625 -1.32934,-2.8297 -2.58106,-5.55264 -3.75733,-8.16407 -1.17634,-2.6114 -2.29708,-5.11315 -3.36304,-7.58422 -1.06607,-2.4712 -2.08657,-4.89718 -3.08471,-7.30591 -0.99823,-2.4088 -1.97267,-4.81178 -2.94556,-7.23633 -0.34772,-0.86638 -0.69553,-1.7689 -1.0437,-2.64404 -2.66339,-6.25269 -5.3982,-12.73163 -8.55835,-20.15503 z"
           style="fill:#000000;fill-opacity:1;fill-rule:evenodd;stroke:none;stroke-width:0.71416688;stroke-linecap:round;stroke-linejoin:round;stroke-miterlimit:10;stroke-dasharray:none;stroke-opacity:1"
           inkscape:connector-curvature="0" />
      </g>
    </g>
  </g>
</svg>
